<svg width="37" height="30" viewBox="0 0 37 30" fill="none" xmlns="http://www.w3.org/2000/svg">
<path d="M22.346 24.3559C20.6568 18.3011 16.1183 15 11.3337 15C6.54908 15 2.01058 18.3011 0.321402 24.3559C-0.561826 27.5218 2.13836 30 4.91029 30H17.7571C20.5291 30 23.2293 27.5218 22.346 24.3559Z" fill="#4DB3E3"/>
<path d="M4.66667 6.66667C4.66667 2.98477 7.65143 0 11.3333 0C15.0152 0 18 2.98477 18 6.66667C18 10.3486 15.0152 13.3333 11.3333 13.3333C7.65143 13.3333 4.66667 10.3486 4.66667 6.66667Z" fill="#4DB3E3"/>
<path d="M20.5 7.5C20.5 4.27834 23.1117 1.66667 26.3333 1.66667C29.555 1.66667 32.1667 4.27834 32.1667 7.5C32.1667 10.7217 29.555 13.3333 26.3333 13.3333C23.1117 13.3333 20.5 10.7217 20.5 7.5Z" fill="#4DB3E3"/>
<path d="M21.6597 16.2887C23.4033 18.1824 24.7606 20.6058 25.5569 23.4601C26.0463 25.2145 25.897 26.8878 25.3146 28.3333H31.8436C34.3394 28.3333 36.8153 26.0933 36.0063 23.1934C34.5333 17.9136 30.5586 15 26.3378 15C24.6971 15 23.0935 15.4403 21.6597 16.2887Z" fill="#4DB3E3"/>
</svg>
