<svg width="38" height="30" viewBox="0 0 38 30" fill="none" xmlns="http://www.w3.org/2000/svg">
<path d="M20.3868 1.59773C20.0777 1.13406 19.5573 0.85556 19 0.85556C18.4428 0.85556 17.9224 1.13406 17.6133 1.59773L11.7627 10.3735L3.07871 6.03151C2.5072 5.74576 1.82264 5.8119 1.3164 6.20177C0.810173 6.59165 0.571397 7.23662 0.701716 7.86215L4.31557 25.2087C4.79861 27.5273 6.8421 29.1889 9.21047 29.1889H28.7896C31.1579 29.1889 33.2014 27.5273 33.6845 25.2087L37.2983 7.86215C37.4286 7.23662 37.1899 6.59165 36.6836 6.20177C36.1774 5.8119 35.4928 5.74576 34.9213 6.03151L26.2373 10.3735L20.3868 1.59773Z" fill="#F7F7F7"/>
</svg>
