<svg width="38" height="30" viewBox="0 0 38 30" fill="none" xmlns="http://www.w3.org/2000/svg">
<path d="M20.3868 1.59773C20.0777 1.13406 19.5573 0.85556 19 0.85556C18.4428 0.85556 17.9224 1.13406 17.6133 1.59773L11.7628 10.3735L3.07874 6.03151C2.50723 5.74576 1.82267 5.8119 1.31643 6.20177C0.810203 6.59165 0.571428 7.23662 0.701747 7.86215L4.3156 25.2087C4.79864 27.5273 6.84213 29.1889 9.2105 29.1889H28.7896C31.158 29.1889 33.2014 27.5273 33.6845 25.2087L37.2983 7.86215C37.4287 7.23662 37.1899 6.59165 36.6837 6.20177C36.1774 5.8119 35.4929 5.74576 34.9214 6.03151L26.2373 10.3735L20.3868 1.59773Z" fill="#4DB3E3"/>
</svg>
