<svg width="20" height="4" viewBox="0 0 20 4" fill="none" xmlns="http://www.w3.org/2000/svg">
<path d="M1.5 0.5C0.671573 0.5 0 1.17157 0 2C0 2.82843 0.671573 3.5 1.5 3.5C2.32843 3.5 3 2.82843 3 2C3 1.17157 2.32843 0.5 1.5 0.5Z" fill="black"/>
<path d="M10 0.5C9.17157 0.5 8.5 1.17157 8.5 2C8.5 2.82843 9.17157 3.5 10 3.5C10.8284 3.5 11.5 2.82843 11.5 2C11.5 1.17157 10.8284 0.5 10 0.5Z" fill="black"/>
<path d="M18.5 0.5C17.6716 0.5 17 1.17157 17 2C17 2.82843 17.6716 3.5 18.5 3.5C19.3284 3.5 20 2.82843 20 2C20 1.17157 19.3284 0.5 18.5 0.5Z" fill="black"/>
</svg>
