<svg width="30" height="30" viewBox="0 0 30 30" fill="none" xmlns="http://www.w3.org/2000/svg">
<path fill-rule="evenodd" clip-rule="evenodd" d="M6.93577 1.24017e-06H23.0642C23.9428 -2.58158e-05 24.7008 -4.91614e-05 25.3251 0.0509546C25.984 0.10479 26.6393 0.22365 27.27 0.544973C28.2108 1.02434 28.9757 1.78924 29.455 2.73005C29.7764 3.36069 29.8952 4.01605 29.9491 4.67496C30.0001 5.29924 30 6.05716 30 6.93573V23.0643C30 23.9428 30.0001 24.7008 29.9491 25.325C29.8952 25.984 29.7764 26.6393 29.455 27.2699C28.9757 28.2108 28.2108 28.9757 27.27 29.455C26.6393 29.7764 25.984 29.8952 25.3251 29.949C24.7008 30.0001 23.9428 30 23.0643 30H6.93573C6.05716 30 5.29924 30.0001 4.67496 29.949C4.01605 29.8952 3.36069 29.7764 2.73005 29.455C1.78924 28.9757 1.02434 28.2108 0.544973 27.2699C0.22365 26.6393 0.10479 25.984 0.0509546 25.325C-4.91583e-05 24.7008 -2.58158e-05 23.9428 1.24018e-06 23.0643V6.9357C-2.58158e-05 6.05718 -4.91583e-05 5.29921 0.0509547 4.67496C0.10479 4.01605 0.22365 3.36069 0.544973 2.73005C1.02434 1.78924 1.78924 1.02434 2.73005 0.544973C3.36069 0.22365 4.01605 0.10479 4.67496 0.0509546C5.29921 -4.91583e-05 6.05724 -2.58158e-05 6.93577 1.24017e-06ZM22.0064 12.4285C22.6573 11.7777 22.6573 10.7224 22.0064 10.0715C21.3556 9.42063 20.3003 9.42063 19.6494 10.0715L13.3279 16.393L11.1731 14.2382C10.5222 13.5873 9.46697 13.5873 8.81609 14.2382C8.16522 14.889 8.16522 15.9443 8.81609 16.5952L12.1494 19.9285C12.8003 20.5794 13.8556 20.5794 14.5064 19.9285L22.0064 12.4285Z" fill="#4DB3E3"/>
</svg>
